<svg xmlns="http://www.w3.org/2000/svg" width="618" height="125" version="1.0">
<!-- License: CC BY-SA 4.0, Author: Codekaizen, Own work, Origin: https://commons.wikimedia.org/wiki/File:IEEE_754_Double_Floating_Point_Format.svg#/media/File:IEEE_754_Double_Floating_Point_Format.svg -->
<path fill="#d5ffff" stroke="#777" stroke-linejoin="bevel" d="M22 54h9v28h-9z"/><path fill="#a4ffb4" stroke="#777" stroke-linejoin="bevel" d="M31 54h9v28h-9zM40 54h9v28h-9zM49 54h9v28h-9zM58 54h9v28h-9zM67 54h9v28h-9zM76 54h9v28h-9zM85 54h9v28h-9zM94 54h9v28h-9zM103 54h9v28h-9zM112 54h9v28h-9zM121 54h9v28h-9z"/><path fill="#ffb2b4" stroke="#777" stroke-linejoin="bevel" font-size="14" d="M130 54h9v28h-9z"/><path fill="#ffb2b4" stroke="#777" stroke-linejoin="bevel" d="M139 54h9v28h-9zM148 54h9v28h-9zM157 54h9v28h-9zM166 54h9v28h-9zM175 54h9v28h-9zM184 54h9v28h-9zM193 54h9v28h-9zM202 54h9v28h-9zM211 54h9v28h-9zM220 54h9v28h-9zM229 54h9v28h-9zM238 54h9v28h-9zM247 54h9v28h-9zM256 54h9v28h-9zM265 54h9v28h-9zM274 54h9v28h-9zM283 54h9v28h-9zM292 54h9v28h-9zM301 54h9v28h-9zM310 54h9v28h-9zM319 54h9v28h-9zM328 54h9v28h-9zM337 54h9v28h-9zM346 54h9v28h-9zM355 54h9v28h-9zM364 54h9v28h-9zM373 54h9v28h-9zM382 54h9v28h-9zM391 54h9v28h-9zM400 54h9v28h-9zM409 54h9v28h-9zM418 54h9v28h-9zM427 54h9v28h-9zM436 54h9v28h-9zM445 54h9v28h-9zM454 54h9v28h-9zM463 54h9v28h-9zM472 54h9v28h-9zM481 54h9v28h-9zM490 54h9v28h-9zM499 54h9v28h-9zM508 54h9v28h-9zM517 54h9v28h-9zM526 54h9v28h-9zM535 54h9v28h-9zM544 54h9v28h-9zM553 54h9v28h-9zM562 54h9v28h-9zM571 54h9v28h-9zM580 54h9v28h-9zM589 54h9v28h-9z"/><path d="M26.5 41.486v10.028M31.046 41.486v10.028M129.372 41.486v10.028" fill="none" stroke="#777" stroke-width="1.013"/><path d="M30.871 41.5h99.075" fill="none" stroke="#777"/><path d="M131.423 41.486v10.028" fill="none" stroke="#777" stroke-width="1.013"/><path d="M131 41.5h466.556" fill="none" stroke="#777"/><path d="M597.467 41.486v10.028" fill="none" stroke="#777" stroke-width="1.013"/><text x="51.38" y="16.813" fill="#777" font-size="12" font-weight="400" font-family="Calibri"><tspan x="51.38" y="16.813" font-size="14" font-family="sans">exponent</tspan></text><text x="58.438" y="34.156" fill="#777" font-size="12" font-weight="400" font-family="Calibri"><tspan x="58.438" y="34.156" font-size="14" font-family="sans">(11 bit)</tspan></text><text x="13.918" y="34.844" fill="#777" font-size="12" font-weight="400" font-family="sans"><tspan x="13.918" y="34.844" font-size="14">sign</tspan></text><text x="341.73" y="15.752" fill="#777" font-size="14" font-weight="400" font-family="sans"><tspan x="341.73" y="15.752">fraction</tspan></text><text x="342.307" y="33.43" fill="#777" font-size="14" font-weight="400" font-family="sans"><tspan x="342.307" y="33.43">(52 bit)</tspan></text><path d="M30.212 90.788a3.712 3.712 0 11-7.424 0 3.712 3.712 0 117.424 0z" fill-opacity=".251" stroke="#777" stroke-linejoin="bevel"/><text x="18.765" y="110.822" fill="#777" font-size="14" font-weight="400" font-family="sans"><tspan x="18.765" y="110.822">63</tspan></text><text x="117.789" y="110.829" fill="#777" font-size="14" font-weight="400" font-family="sans"><tspan x="117.789" y="110.829">52</tspan></text><path d="M129.212 90.788a3.712 3.712 0 11-7.424 0 3.712 3.712 0 117.424 0zM597.212 90.788a3.712 3.712 0 11-7.424 0 3.712 3.712 0 117.424 0z" fill-opacity=".251" stroke="#777" stroke-linejoin="bevel"/><text x="589.651" y="110.504" fill="#777" font-size="14" font-weight="400" font-family="sans"><tspan x="589.651" y="110.504">0</tspan></text></svg>